<mxfile host="app.diagrams.net" modified="2022-01-18T14:44:31.235Z" agent="5.0 (Windows NT 10.0; Win64; x64) AppleWebKit/537.36 (KHTML, like Gecko) Chrome/97.0.4692.71 Safari/537.36" etag="oEMelz39Xt0ENNI6bQHn" version="15.9.6" type="github">
  <diagram id="9DmpfjTB166cyUvd4m0v" name="Page-1">
    <mxGraphModel dx="1038" dy="547" grid="1" gridSize="10" guides="1" tooltips="1" connect="1" arrows="1" fold="1" page="1" pageScale="1" pageWidth="850" pageHeight="1100" math="0" shadow="0">
      <root>
        <mxCell id="0" />
        <mxCell id="1" parent="0" />
        <mxCell id="-0e6Z3VevnkznhJ8oJV0-17" value="" style="group" vertex="1" connectable="0" parent="1">
          <mxGeometry x="127.17" y="30" width="712.83" height="720" as="geometry" />
        </mxCell>
        <mxCell id="-0e6Z3VevnkznhJ8oJV0-16" value="" style="rounded=0;whiteSpace=wrap;html=1;" vertex="1" parent="-0e6Z3VevnkznhJ8oJV0-17">
          <mxGeometry x="-47.17" width="712.83" height="720" as="geometry" />
        </mxCell>
        <mxCell id="-0e6Z3VevnkznhJ8oJV0-5" value="" style="rounded=1;whiteSpace=wrap;html=1;" vertex="1" parent="-0e6Z3VevnkznhJ8oJV0-17">
          <mxGeometry x="392.83" y="80" width="140" height="340" as="geometry" />
        </mxCell>
        <mxCell id="QFQ8GBK3NfVe9Rvw92Bh-1" value="Arango DB" style="shape=cylinder3;whiteSpace=wrap;html=1;boundedLbl=1;backgroundOutline=1;size=15;" parent="-0e6Z3VevnkznhJ8oJV0-17" vertex="1">
          <mxGeometry x="212.82999999999998" y="620" width="59" height="80" as="geometry" />
        </mxCell>
        <mxCell id="QFQ8GBK3NfVe9Rvw92Bh-2" value="Build-Job2" style="rounded=1;whiteSpace=wrap;html=1;" parent="-0e6Z3VevnkznhJ8oJV0-17" vertex="1">
          <mxGeometry x="402.83" y="180" width="120" height="60" as="geometry" />
        </mxCell>
        <mxCell id="QFQ8GBK3NfVe9Rvw92Bh-4" value="Build-Job1" style="rounded=1;whiteSpace=wrap;html=1;" parent="-0e6Z3VevnkznhJ8oJV0-17" vertex="1">
          <mxGeometry x="402.83" y="100" width="120" height="60" as="geometry" />
        </mxCell>
        <mxCell id="QFQ8GBK3NfVe9Rvw92Bh-6" value="Build-JobN" style="rounded=1;whiteSpace=wrap;html=1;" parent="-0e6Z3VevnkznhJ8oJV0-17" vertex="1">
          <mxGeometry x="402.83" y="340" width="120" height="60" as="geometry" />
        </mxCell>
        <mxCell id="QFQ8GBK3NfVe9Rvw92Bh-12" value="Visualizer" style="swimlane;startSize=23;" parent="-0e6Z3VevnkznhJ8oJV0-17" vertex="1">
          <mxGeometry x="522.83" y="620" width="137.17" height="80" as="geometry" />
        </mxCell>
        <mxCell id="mKVJlOvaHkuobYISGwKr-1" value="Transition Service" style="rounded=1;whiteSpace=wrap;html=1;fillColor=#d5e8d4;strokeColor=#82b366;" parent="-0e6Z3VevnkznhJ8oJV0-17" vertex="1">
          <mxGeometry x="22.83" y="220" width="119" height="60" as="geometry" />
        </mxCell>
        <mxCell id="mKVJlOvaHkuobYISGwKr-7" value="Inject Enforcer Application" style="text;html=1;align=center;verticalAlign=middle;resizable=0;points=[];autosize=1;strokeColor=#0000FF;fillColor=none;dashed=1;" parent="-0e6Z3VevnkznhJ8oJV0-17" vertex="1">
          <mxGeometry x="182.82999999999998" y="270" width="150" height="20" as="geometry" />
        </mxCell>
        <mxCell id="mKVJlOvaHkuobYISGwKr-9" style="edgeStyle=orthogonalEdgeStyle;rounded=0;orthogonalLoop=1;jettySize=auto;html=1;entryX=0.5;entryY=0;entryDx=0;entryDy=0;" parent="-0e6Z3VevnkznhJ8oJV0-17" source="mKVJlOvaHkuobYISGwKr-8" target="mKVJlOvaHkuobYISGwKr-1" edge="1">
          <mxGeometry relative="1" as="geometry" />
        </mxCell>
        <mxCell id="mKVJlOvaHkuobYISGwKr-8" value="" style="aspect=fixed;html=1;points=[];align=center;image;fontSize=12;image=img/lib/azure2/integration/Event_Grid_Topics.svg;dashed=1;strokeColor=#0000FF;" parent="-0e6Z3VevnkznhJ8oJV0-17" vertex="1">
          <mxGeometry x="42.83" y="80" width="77.17" height="70" as="geometry" />
        </mxCell>
        <mxCell id="mKVJlOvaHkuobYISGwKr-10" value="Docker Event" style="text;html=1;align=center;verticalAlign=middle;resizable=0;points=[];autosize=1;strokeColor=#0000FF;fillColor=none;dashed=1;" parent="-0e6Z3VevnkznhJ8oJV0-17" vertex="1">
          <mxGeometry x="142.82999999999998" y="110" width="90" height="20" as="geometry" />
        </mxCell>
        <mxCell id="mKVJlOvaHkuobYISGwKr-11" value="unix:///var/run/docker.sock" style="text;html=1;align=center;verticalAlign=middle;resizable=0;points=[];autosize=1;strokeColor=#0000FF;fillColor=none;dashed=1;" parent="-0e6Z3VevnkznhJ8oJV0-17" vertex="1">
          <mxGeometry x="112.83" y="180" width="150" height="20" as="geometry" />
        </mxCell>
        <mxCell id="mKVJlOvaHkuobYISGwKr-12" value="" style="aspect=fixed;perimeter=ellipsePerimeter;html=1;align=center;shadow=0;dashed=0;fontColor=#4277BB;labelBackgroundColor=#ffffff;fontSize=12;spacingTop=3;image;image=img/lib/ibm/social/messaging.svg;strokeColor=#0000FF;" parent="-0e6Z3VevnkznhJ8oJV0-17" vertex="1">
          <mxGeometry x="212.82999999999998" y="310" width="59" height="60" as="geometry" />
        </mxCell>
        <mxCell id="mKVJlOvaHkuobYISGwKr-17" value="Producer" style="rounded=1;whiteSpace=wrap;html=1;strokeColor=#000000;" parent="-0e6Z3VevnkznhJ8oJV0-17" vertex="1">
          <mxGeometry x="72.83" y="325" width="119" height="30" as="geometry" />
        </mxCell>
        <mxCell id="mKVJlOvaHkuobYISGwKr-19" value="Metrics Fanout Exchange" style="shape=process;whiteSpace=wrap;html=1;backgroundOutline=1;strokeColor=#000000;" parent="-0e6Z3VevnkznhJ8oJV0-17" vertex="1">
          <mxGeometry x="182.82999999999998" y="410" width="119" height="60" as="geometry" />
        </mxCell>
        <mxCell id="mKVJlOvaHkuobYISGwKr-21" style="edgeStyle=orthogonalEdgeStyle;rounded=0;orthogonalLoop=1;jettySize=auto;html=1;exitX=0.5;exitY=1;exitDx=0;exitDy=0;" parent="-0e6Z3VevnkznhJ8oJV0-17" source="mKVJlOvaHkuobYISGwKr-19" target="mKVJlOvaHkuobYISGwKr-19" edge="1">
          <mxGeometry relative="1" as="geometry" />
        </mxCell>
        <mxCell id="mKVJlOvaHkuobYISGwKr-22" value="" style="endArrow=classic;html=1;rounded=0;exitX=0.5;exitY=1;exitDx=0;exitDy=0;entryX=0.5;entryY=0;entryDx=0;entryDy=0;entryPerimeter=0;" parent="-0e6Z3VevnkznhJ8oJV0-17" source="mKVJlOvaHkuobYISGwKr-19" target="mKVJlOvaHkuobYISGwKr-23" edge="1">
          <mxGeometry width="50" height="50" relative="1" as="geometry">
            <mxPoint x="282.83" y="630" as="sourcePoint" />
            <mxPoint x="262.83" y="650" as="targetPoint" />
          </mxGeometry>
        </mxCell>
        <mxCell id="mKVJlOvaHkuobYISGwKr-25" style="edgeStyle=orthogonalEdgeStyle;rounded=0;orthogonalLoop=1;jettySize=auto;html=1;exitX=0.5;exitY=1;exitDx=0;exitDy=0;exitPerimeter=0;" parent="-0e6Z3VevnkznhJ8oJV0-17" source="mKVJlOvaHkuobYISGwKr-23" target="QFQ8GBK3NfVe9Rvw92Bh-1" edge="1">
          <mxGeometry relative="1" as="geometry" />
        </mxCell>
        <mxCell id="mKVJlOvaHkuobYISGwKr-23" value="" style="outlineConnect=0;dashed=0;verticalLabelPosition=bottom;verticalAlign=top;align=center;html=1;shape=mxgraph.aws3.queue;fillColor=#D9A741;gradientColor=none;strokeColor=#000000;" parent="-0e6Z3VevnkznhJ8oJV0-17" vertex="1">
          <mxGeometry x="206.07999999999998" y="520" width="72.5" height="48" as="geometry" />
        </mxCell>
        <mxCell id="mKVJlOvaHkuobYISGwKr-24" value="Metrics Queue" style="text;html=1;align=center;verticalAlign=middle;resizable=0;points=[];autosize=1;strokeColor=#0000FF;fillColor=none;dashed=1;" parent="-0e6Z3VevnkznhJ8oJV0-17" vertex="1">
          <mxGeometry x="62.83" y="460" width="90" height="20" as="geometry" />
        </mxCell>
        <mxCell id="mKVJlOvaHkuobYISGwKr-27" value="Tee-Up" style="rounded=1;whiteSpace=wrap;html=1;strokeColor=#000000;" parent="-0e6Z3VevnkznhJ8oJV0-17" vertex="1">
          <mxGeometry x="292.83" y="538" width="119" height="30" as="geometry" />
        </mxCell>
        <mxCell id="QFQ8GBK3NfVe9Rvw92Bh-5" value="Build-Job3" style="rounded=1;whiteSpace=wrap;html=1;" parent="-0e6Z3VevnkznhJ8oJV0-17" vertex="1">
          <mxGeometry x="402.83" y="260" width="120" height="60" as="geometry" />
        </mxCell>
        <mxCell id="-0e6Z3VevnkznhJ8oJV0-2" value="" style="endArrow=classic;html=1;rounded=0;exitX=1;exitY=0.5;exitDx=0;exitDy=0;entryX=0;entryY=0.5;entryDx=0;entryDy=0;" edge="1" parent="-0e6Z3VevnkznhJ8oJV0-17" source="mKVJlOvaHkuobYISGwKr-1" target="-0e6Z3VevnkznhJ8oJV0-5">
          <mxGeometry relative="1" as="geometry">
            <mxPoint x="242.82999999999998" y="270" as="sourcePoint" />
            <mxPoint x="342.83" y="270" as="targetPoint" />
          </mxGeometry>
        </mxCell>
        <mxCell id="-0e6Z3VevnkznhJ8oJV0-3" value="" style="shape=message;html=1;outlineConnect=0;" vertex="1" parent="-0e6Z3VevnkznhJ8oJV0-2">
          <mxGeometry width="20" height="14" relative="1" as="geometry">
            <mxPoint x="-10" y="-7" as="offset" />
          </mxGeometry>
        </mxCell>
        <mxCell id="mKVJlOvaHkuobYISGwKr-20" style="edgeStyle=orthogonalEdgeStyle;rounded=0;orthogonalLoop=1;jettySize=auto;html=1;exitX=0.5;exitY=1;exitDx=0;exitDy=0;entryX=0.5;entryY=0;entryDx=0;entryDy=0;" parent="-0e6Z3VevnkznhJ8oJV0-17" source="mKVJlOvaHkuobYISGwKr-12" target="mKVJlOvaHkuobYISGwKr-19" edge="1">
          <mxGeometry relative="1" as="geometry" />
        </mxCell>
        <mxCell id="-0e6Z3VevnkznhJ8oJV0-9" value="" style="endArrow=classic;html=1;rounded=0;exitX=-0.031;exitY=0.772;exitDx=0;exitDy=0;entryX=1;entryY=0.5;entryDx=0;entryDy=0;exitPerimeter=0;" edge="1" parent="-0e6Z3VevnkznhJ8oJV0-17" source="-0e6Z3VevnkznhJ8oJV0-5" target="mKVJlOvaHkuobYISGwKr-12">
          <mxGeometry width="50" height="50" relative="1" as="geometry">
            <mxPoint x="272.83" y="500" as="sourcePoint" />
            <mxPoint x="322.83" y="450" as="targetPoint" />
          </mxGeometry>
        </mxCell>
        <mxCell id="-0e6Z3VevnkznhJ8oJV0-10" value="JSON REST&lt;br&gt;API" style="ellipse;shape=cloud;whiteSpace=wrap;html=1;" vertex="1" parent="-0e6Z3VevnkznhJ8oJV0-17">
          <mxGeometry x="332.83" y="620" width="120" height="80" as="geometry" />
        </mxCell>
        <mxCell id="-0e6Z3VevnkznhJ8oJV0-12" value="" style="endArrow=classic;html=1;rounded=0;exitX=0.875;exitY=0.5;exitDx=0;exitDy=0;exitPerimeter=0;entryX=0;entryY=0.5;entryDx=0;entryDy=0;" edge="1" parent="-0e6Z3VevnkznhJ8oJV0-17" source="-0e6Z3VevnkznhJ8oJV0-10" target="QFQ8GBK3NfVe9Rvw92Bh-12">
          <mxGeometry width="50" height="50" relative="1" as="geometry">
            <mxPoint x="272.83" y="530" as="sourcePoint" />
            <mxPoint x="322.83" y="480" as="targetPoint" />
          </mxGeometry>
        </mxCell>
        <mxCell id="-0e6Z3VevnkznhJ8oJV0-13" value="" style="endArrow=classic;html=1;rounded=0;exitX=1;exitY=0.5;exitDx=0;exitDy=0;exitPerimeter=0;entryX=0.097;entryY=0.492;entryDx=0;entryDy=0;entryPerimeter=0;" edge="1" parent="-0e6Z3VevnkznhJ8oJV0-17" source="QFQ8GBK3NfVe9Rvw92Bh-1" target="-0e6Z3VevnkznhJ8oJV0-10">
          <mxGeometry width="50" height="50" relative="1" as="geometry">
            <mxPoint x="272.83" y="530" as="sourcePoint" />
            <mxPoint x="312.83" y="660" as="targetPoint" />
          </mxGeometry>
        </mxCell>
        <mxCell id="-0e6Z3VevnkznhJ8oJV0-14" value="&lt;h1&gt;Gegenpress Container Monitoring&lt;/h1&gt;&lt;p&gt;&lt;br&gt;&lt;/p&gt;" style="text;html=1;strokeColor=none;fillColor=none;spacing=5;spacingTop=-20;whiteSpace=wrap;overflow=hidden;rounded=0;" vertex="1" parent="-0e6Z3VevnkznhJ8oJV0-17">
          <mxGeometry x="72.83" y="10" width="440" height="50" as="geometry" />
        </mxCell>
        <mxCell id="mKVJlOvaHkuobYISGwKr-26" value="Grafana Board" style="text;html=1;align=center;verticalAlign=middle;resizable=0;points=[];autosize=1;strokeColor=none;fillColor=none;" parent="-0e6Z3VevnkznhJ8oJV0-17" vertex="1">
          <mxGeometry x="546.4200000000001" y="660" width="90" height="20" as="geometry" />
        </mxCell>
      </root>
    </mxGraphModel>
  </diagram>
</mxfile>
